<?xml version="1.0" encoding="utf-8"?>
<!-- Generator: Adobe Illustrator 19.2.1, SVG Export Plug-In . SVG Version: 6.00 Build 0)  -->
<svg version="1.1" id="Layer_1" xmlns="http://www.w3.org/2000/svg" xmlns:xlink="http://www.w3.org/1999/xlink" x="0px" y="0px"
	 viewBox="0 0 300 300" style="enable-background:new 0 0 300 300;" xml:space="preserve">
<style type="text/css">
	.st0{opacity:0.4;fill:#D1D1D1;enable-background:new    ;}
	.st1{fill:none;stroke:#D3D3D3;stroke-miterlimit:10;}
	.st2{fill:none;}
	.st3{clip-path:url(#SVGID_2_);fill:url(#SVGID_3_);}
	.st4{clip-path:url(#SVGID_2_);}
	.st5{clip-path:url(#SVGID_2_);fill:#1E102B;}
	.st6{opacity:0.6;clip-path:url(#SVGID_2_);fill:url(#SVGID_6_);}
	.st7{clip-path:url(#SVGID_2_);fill:#3F2977;}
	.st8{opacity:0.6;clip-path:url(#SVGID_2_);fill:url(#SVGID_11_);}
	.st9{clip-path:url(#SVGID_2_);fill:#664BA0;}
</style>
<path class="st0" d="M277.4,300H33.2c-12.5,0-22.6-10.1-22.6-22.6V33.2c0-12.5,10.1-22.6,22.6-22.6h244.2
	c12.5,0,22.6,10.1,22.6,22.6v244.2C300,289.9,289.9,300,277.4,300z"/>
<path class="st1" d="M267.4,290H23.6C11.1,290,1,279.9,1,267.4V23.6C1,11.1,11.1,1,23.6,1h243.8C279.9,1,290,11.1,290,23.6v243.8
	C290,279.9,279.9,290,267.4,290z"/>
<path class="st2" d="M267.4,290H23.6C11.1,290,1,279.9,1,267.4V23.6C1,11.1,11.1,1,23.6,1h243.8C279.9,1,290,11.1,290,23.6v243.8
	C290,279.9,279.9,290,267.4,290z"/>
<g>
	<defs>
		<path id="SVGID_1_" d="M267.4,290H23.6C11.1,290,1,279.9,1,267.4V23.6C1,11.1,11.1,1,23.6,1h243.8C279.9,1,290,11.1,290,23.6
			v243.8C290,279.9,279.9,290,267.4,290z"/>
	</defs>
	<clipPath id="SVGID_2_">
		<use xlink:href="#SVGID_1_"  style="overflow:visible;"/>
	</clipPath>
	<linearGradient id="SVGID_3_" gradientUnits="userSpaceOnUse" x1="1.0193" y1="290.1233" x2="289.9607" y2="1.182">
		<stop  offset="0" style="stop-color:#D0C8E8"/>
		<stop  offset="0.5018" style="stop-color:#E9E6F4"/>
		<stop  offset="1" style="stop-color:#FFFFFF"/>
	</linearGradient>
	<rect x="1" y="1.2" class="st3" width="288.9" height="288.9"/>
	<g class="st4">
		<g>
			<defs>
				<polyline id="SVGID_4_" points="290,1.2 1,1.2 1,290.1 290,290.1 290,1.2 				"/>
			</defs>
			<clipPath id="SVGID_5_">
				<use xlink:href="#SVGID_4_"  style="overflow:visible;"/>
			</clipPath>
		</g>
	</g>
	<polyline class="st5" points="255.3,36.8 104,36.8 104,63.5 104,188 228.6,188 255.3,188 255.3,36.8 	"/>
	<linearGradient id="SVGID_6_" gradientUnits="userSpaceOnUse" x1="194.1719" y1="203.166" x2="145.563" y2="69.6141">
		<stop  offset="0" style="stop-color:#000000"/>
		<stop  offset="1" style="stop-color:#000000;stop-opacity:0"/>
	</linearGradient>
	<rect x="104" y="84.7" class="st6" width="131.8" height="103.3"/>
	<g class="st4">
		<g>
			<defs>
				<polyline id="SVGID_7_" points="290,1.2 1,1.2 1,290.1 290,290.1 290,1.2 				"/>
			</defs>
			<clipPath id="SVGID_8_">
				<use xlink:href="#SVGID_7_"  style="overflow:visible;"/>
			</clipPath>
		</g>
	</g>
	<g class="st4">
		<g>
			<defs>
				<polyline id="SVGID_9_" points="290,1.2 1,1.2 1,290.2 290,290.2 290,1.2 				"/>
			</defs>
			<clipPath id="SVGID_10_">
				<use xlink:href="#SVGID_9_"  style="overflow:visible;"/>
			</clipPath>
		</g>
	</g>
	<polyline class="st7" points="221.2,70.9 69.9,70.9 69.9,97.6 69.9,222.2 194.5,222.2 221.2,222.2 221.2,70.9 	"/>
	<linearGradient id="SVGID_11_" gradientUnits="userSpaceOnUse" x1="160.0588" y1="237.3173" x2="111.4499" y2="103.7654">
		<stop  offset="0" style="stop-color:#361856"/>
		<stop  offset="1" style="stop-color:#361856;stop-opacity:0"/>
	</linearGradient>
	<rect x="69.9" y="118.9" class="st8" width="131.8" height="103.3"/>
	<rect x="34.9" y="104.9" class="st9" width="151.9" height="151.4"/>
</g>
<path class="st2" d="M267.4,290H23.6C11.1,290,1,279.9,1,267.4V23.6C1,11.1,11.1,1,23.6,1h243.8C279.9,1,290,11.1,290,23.6v243.8
	C290,279.9,279.9,290,267.4,290z"/>
</svg>
