<?xml version="1.0" encoding="utf-8"?>
<!-- Generator: Adobe Illustrator 19.2.1, SVG Export Plug-In . SVG Version: 6.00 Build 0)  -->
<svg version="1.1" id="Layer_1" xmlns="http://www.w3.org/2000/svg" xmlns:xlink="http://www.w3.org/1999/xlink" x="0px" y="0px"
	 viewBox="0 0 24 24" style="enable-background:new 0 0 24 24;" xml:space="preserve">
<style type="text/css">
	.st0{clip-path:url(#SVGID_4_);fill:url(#SVGID_5_);}
	.st1{clip-path:url(#SVGID_4_);}
	.st2{clip-path:url(#SVGID_4_);fill:#1E102B;}
	.st3{opacity:0.6;clip-path:url(#SVGID_4_);fill:url(#SVGID_8_);}
	.st4{clip-path:url(#SVGID_4_);fill:#3F2977;}
	.st5{opacity:0.6;clip-path:url(#SVGID_4_);fill:url(#SVGID_13_);}
	.st6{clip-path:url(#SVGID_4_);fill:#664BA0;}
</style>
<g>
	<defs>
		<path id="SVGID_1_" d="M23.8-0.2"/>
	</defs>
	<clipPath id="SVGID_2_">
		<use xlink:href="#SVGID_1_"  style="overflow:visible;"/>
	</clipPath>
</g>
<g>
	<defs>
		<path id="SVGID_3_" d="M20.4,24H3.6c-2,0-3.6-1.6-3.6-3.6V3.6C0,1.6,1.6,0,3.6,0h16.8c2,0,3.6,1.6,3.6,3.6v16.8
			C24,22.4,22.4,24,20.4,24z"/>
	</defs>
	<clipPath id="SVGID_4_">
		<use xlink:href="#SVGID_3_"  style="overflow:visible;"/>
	</clipPath>
	<linearGradient id="SVGID_5_" gradientUnits="userSpaceOnUse" x1="-2.692104e-010" y1="24.0006" x2="23.9956" y2="4.985205e-003">
		<stop  offset="0" style="stop-color:#D0C8E8"/>
		<stop  offset="0.5018" style="stop-color:#E9E6F4"/>
		<stop  offset="1" style="stop-color:#FFFFFF"/>
	</linearGradient>
	<rect y="0" class="st0" width="24" height="24"/>
	<g class="st1">
		<g>
			<defs>
				<polyline id="SVGID_6_" points="24,0 0,0 0,24 24,24 24,0 				"/>
			</defs>
			<clipPath id="SVGID_7_">
				<use xlink:href="#SVGID_6_"  style="overflow:visible;"/>
			</clipPath>
		</g>
	</g>
	<polyline class="st2" points="21.1,3 8.6,3 8.6,5.2 8.6,15.5 18.9,15.5 21.1,15.5 21.1,3 	"/>
	<linearGradient id="SVGID_8_" gradientUnits="userSpaceOnUse" x1="16.0407" y1="16.7791" x2="12.0039" y2="5.688">
		<stop  offset="0" style="stop-color:#000000"/>
		<stop  offset="1" style="stop-color:#000000;stop-opacity:0"/>
	</linearGradient>
	<rect x="8.6" y="6.9" class="st3" width="10.9" height="8.6"/>
	<g class="st1">
		<g>
			<defs>
				<polyline id="SVGID_9_" points="24,0 0,0 0,24 24,24 24,0 				"/>
			</defs>
			<clipPath id="SVGID_10_">
				<use xlink:href="#SVGID_9_"  style="overflow:visible;"/>
			</clipPath>
		</g>
	</g>
	<g class="st1">
		<g>
			<defs>
				<polyline id="SVGID_11_" points="24,0 0,0 0,24 24,24 24,0 				"/>
			</defs>
			<clipPath id="SVGID_12_">
				<use xlink:href="#SVGID_11_"  style="overflow:visible;"/>
			</clipPath>
		</g>
	</g>
	<polyline class="st4" points="18.3,5.8 5.7,5.8 5.7,8 5.7,18.4 16.1,18.4 18.3,18.4 18.3,5.8 	"/>
	<linearGradient id="SVGID_13_" gradientUnits="userSpaceOnUse" x1="13.2077" y1="19.6152" x2="9.1709" y2="8.5242">
		<stop  offset="0" style="stop-color:#361856"/>
		<stop  offset="1" style="stop-color:#361856;stop-opacity:0"/>
	</linearGradient>
	<rect x="5.7" y="9.8" class="st5" width="10.9" height="8.6"/>
	<rect x="2.8" y="8.6" class="st6" width="12.6" height="12.6"/>
</g>
</svg>
